<?xml version="1.0" encoding="utf-8"?>
<!-- Generator: Adobe Illustrator 15.0.2, SVG Export Plug-In . SVG Version: 6.00 Build 0)  -->
<!DOCTYPE svg PUBLIC "-//W3C//DTD SVG 1.1//EN" "http://www.w3.org/Graphics/SVG/1.1/DTD/svg11.dtd">
<svg version="1.1" id="レイヤー_1" xmlns="http://www.w3.org/2000/svg" xmlns:xlink="http://www.w3.org/1999/xlink" x="0px"
	 y="0px" width="148.75px" height="148.75px" viewBox="0 0 148.75 148.75" enable-background="new 0 0 148.75 148.75"
	 xml:space="preserve">
<g>
	<path fill="#D5206D" d="M1.099,85.641V54.658c0-1.295,0.515-2.538,1.431-3.454l2.137-2.137c0.916-0.916,2.158-1.431,3.454-1.431
		h32.672c1.258,0,2.467,0.485,3.376,1.355l54.988,52.597c1.965,1.88,2.018,5.002,0.116,6.945l-35.524,36.324
		c-1.92,1.963-5.08,1.958-6.994-0.01L2.482,89.045C1.595,88.134,1.099,86.912,1.099,85.641z M17.422,56.384
		c-4.356,0-7.888,3.532-7.888,7.888c0,4.357,3.532,7.888,7.888,7.888s7.888-3.531,7.888-7.888
		C25.31,59.916,21.778,56.384,17.422,56.384z"/>
	<g transform="matrix( 1, 0, 0, 1, -8.75,-7) ">
		<path fill="#FFFFFF" d="M71.024,99.321c-1.755,1.865-1.016,19.572-1.016,19.572s16.035-5.089,16.297-6.79
			C87.495,104.422,72.779,97.456,71.024,99.321z"/>
		<path fill="#FFFFFF" d="M75.586,78.671c0.199-1.841,41.432-64,48.639-66.269c7.208-2.27,32.063,18.598,30.106,23.39
			S108.357,100.43,106,101.845c-3.475,2.085-36.919,20.38-37.483,18.577C67.543,117.307,74.798,85.97,75.586,78.671z"/>
		<g>
			<path fill="#D5206D" d="M67.671,123.008c-0.502,0-1.001-0.156-1.421-0.463c-0.717-0.521-1.089-1.393-0.972-2.27l5.434-40.093
				c0.054-0.394,0.205-0.769,0.439-1.089l49.979-68.69c0.476-0.656,1.223-1.047,2.061-0.993c3.826,0.172,7.459,0.823,10.794,1.931
				c3.614,1.41,6.815,3.185,9.629,5.319c2.515,1.993,4.882,4.402,7.078,7.189c1.991,2.766,3.812,5.896,5.474,9.391
				c0.38,0.797,0.294,1.738-0.225,2.455l-49.857,68.811c-0.233,0.322-0.545,0.582-0.904,0.757l-36.469,17.509
				C68.38,122.93,68.025,123.008,67.671,123.008z M75.413,81.441l-4.759,35.054l31.877-15.316l48.649-67.144
				c-1.362-2.716-2.821-5.161-4.345-7.281c-1.9-2.41-4.002-4.551-6.179-6.279c-2.42-1.832-5.23-3.388-8.314-4.593
				c-2.438-0.809-5.181-1.346-8.086-1.57L75.413,81.441z"/>
		</g>
		<g>
			<path fill="#D5206D" d="M85.898,113.711c-0.777,0-1.496-0.505-1.732-1.287c-2.085-6.906-6.609-10.153-13.784-9.939
				c-0.921,0.026-1.833-0.756-1.864-1.756c-0.03-1,0.756-1.834,1.755-1.865c8.778-0.28,14.806,4.061,17.36,12.514
				c0.29,0.957-0.252,1.969-1.21,2.256C86.248,113.688,86.072,113.711,85.898,113.711z M104.131,104.899
				c-0.65,0-1.281-0.352-1.605-0.97c-1.633-3.111-3.441-5.943-5.377-8.419c-1.924-2.217-4.164-4.226-6.6-5.899
				c-2.516-1.959-5.327-3.537-8.445-4.756c-2.794-1.162-5.905-2.016-9.284-2.556c-0.988-0.155-1.661-1.084-1.504-2.072
				c0.157-0.986,1.088-1.665,2.072-1.502c3.662,0.583,7.05,1.516,10.07,2.773c3.408,1.33,6.528,3.082,9.231,5.194
				c2.601,1.782,5.071,3.999,7.255,6.517c2.126,2.719,4.054,5.734,5.788,9.038c0.465,0.886,0.124,1.98-0.762,2.444
				C104.702,104.834,104.414,104.899,104.131,104.899z"/>
		</g>
	</g>
</g>
</svg>
