<?xml version="1.0" encoding="utf-8"?>
<!-- Generator: Adobe Illustrator 15.0.2, SVG Export Plug-In . SVG Version: 6.00 Build 0)  -->
<!DOCTYPE svg PUBLIC "-//W3C//DTD SVG 1.1//EN" "http://www.w3.org/Graphics/SVG/1.1/DTD/svg11.dtd">
<svg version="1.1" id="レイヤー_1" xmlns="http://www.w3.org/2000/svg" xmlns:xlink="http://www.w3.org/1999/xlink" x="0px"
	 y="0px" width="148.75px" height="148.75px" viewBox="0 0 148.75 148.75" enable-background="new 0 0 148.75 148.75"
	 xml:space="preserve">
<g>
	<g>
		<g>
			<path fill="#D5206D" d="M55.925,135.207c-0.005-1.273-0.257-2.468-0.696-3.578l19.618-0.007l-0.003-21.236
				c-1.586,1.138-2.379-1.808-4.476-1.81c-5.366,0.002-8.409-0.497-8.409-5.864s1.892-9.956,7.259-9.956
				c2.096,0.001,4.04,0.678,5.628,1.803l-0.008-20.212l-19.602,0.005c0.438-1.113,0.685-2.323,0.684-3.582
				c0-5.366-4.175-13.309-9.544-13.313c-5.36-0.005-12.465,5.845-12.465,11.212c0.002,1.258,2.818,4.565,3.264,5.671L17.57,74.345
				l-0.013,19.57c1.378-0.738,2.94-1.159,4.606-1.159c5.367,0,9.723,4.357,9.723,9.722c0,5.369-4.35,9.719-9.717,9.717
				c-1.671-0.006-3.239-0.429-4.606-1.156l-0.002,20.584l19.618,0.005c-0.447,1.108-0.69,2.307-0.692,3.586
				c0,5.355,4.354,9.711,9.717,9.717C51.571,144.93,55.927,140.576,55.925,135.207z"/>
			
				<linearGradient id="SVGID_1_" gradientUnits="userSpaceOnUse" x1="8.8979" y1="42.6128" x2="8.8979" y2="126.1182" gradientTransform="matrix(0.7071 -0.7071 0.7071 0.7071 -19.7427 49.6237)">
				<stop  offset="0" style="stop-color:#FFFFFF"/>
				<stop  offset="0.0457" style="stop-color:#FDFDFD"/>
				<stop  offset="0.0622" style="stop-color:#F7F7F6"/>
				<stop  offset="0.0739" style="stop-color:#EBEBEB"/>
				<stop  offset="0.0833" style="stop-color:#DBDBDA"/>
				<stop  offset="0.0869" style="stop-color:#D3D3D1"/>
				<stop  offset="0.1026" style="stop-color:#DBDBDA"/>
				<stop  offset="0.1435" style="stop-color:#EBEBEB"/>
				<stop  offset="0.1943" style="stop-color:#F7F7F6"/>
				<stop  offset="0.2656" style="stop-color:#FDFDFD"/>
				<stop  offset="0.4636" style="stop-color:#FFFFFF"/>
			</linearGradient>
			<path fill="url(#SVGID_1_)" d="M46.206,145.814L46.206,145.814h-0.002c-5.847-0.006-10.602-4.762-10.602-10.602
				c0.001-0.923,0.118-1.827,0.351-2.701l-19.276-0.005l0.002-22.943l1.3,0.693c1.286,0.684,2.736,1.048,4.193,1.053
				c4.87,0,8.83-3.962,8.83-8.832c0-4.872-3.964-8.836-8.838-8.836c-1.474,0-2.883,0.354-4.189,1.053l-1.304,0.699l0.014-21.934
				l18.92-0.004c-0.131-0.192-0.267-0.389-0.398-0.579c-1.315-1.902-2.179-3.222-2.181-4.206
				c0.001-6.003,7.765-12.099,13.344-12.099c6.057,0.004,10.436,8.484,10.436,14.198c0.002,0.909-0.115,1.812-0.349,2.696
				l19.268-0.005l0.008,22.811l-1.397-0.99c-1.514-1.072-3.282-1.64-5.116-1.64c-5.268,0-6.374,4.932-6.374,9.07
				c0,2.838,0.925,3.718,1.73,4.168c1.209,0.676,3.102,0.811,5.763,0.811c1.345,0.002,2.248,0.826,2.907,1.428
				c0.298,0.271,0.706,0.645,0.883,0.645c0.043,0,0.117-0.036,0.2-0.096l1.401-1.005l0.003,23.845l-19.28,0.007
				c0.234,0.88,0.355,1.78,0.358,2.689c0.001,2.837-1.102,5.5-3.104,7.504C51.701,144.71,49.038,145.814,46.206,145.814z
				 M18.447,130.737l20.043,0.005L38,131.958c-0.415,1.03-0.626,2.126-0.628,3.256c0,4.864,3.962,8.826,8.832,8.83l0.002,0.886
				v-0.886l0,0c2.359,0,4.578-0.919,6.246-2.588c1.67-1.67,2.588-3.889,2.588-6.249c-0.005-1.106-0.219-2.202-0.634-3.253
				l-0.479-1.21l20.034-0.007l-0.002-19.213c-0.78-0.069-1.377-0.614-1.908-1.099c-0.543-0.495-1.057-0.964-1.684-0.964
				c-3.053,0-5.104-0.17-6.656-1.037c-1.8-1.004-2.638-2.82-2.638-5.713c0-6.89,2.969-10.842,8.145-10.842
				c1.658,0.002,3.271,0.387,4.742,1.125l-0.007-17.763l-20.017,0.005l0.476-1.209c0.415-1.055,0.624-2.15,0.622-3.257
				c0-4.906-3.879-12.425-8.658-12.429c-5.594,0-11.58,6.061-11.58,10.327c0.011,0.519,1.217,2.263,1.866,3.2
				c0.63,0.911,1.129,1.63,1.334,2.14l0.489,1.216l-20.03,0.004l-0.012,17.312c1.188-0.445,2.433-0.672,3.721-0.672
				c5.85,0,10.608,4.76,10.608,10.607c0,5.846-4.755,10.602-10.599,10.602c-1.273-0.004-2.539-0.235-3.726-0.676L18.447,130.737z"/>
		</g>
	</g>
	<g>
		<g>
			<path fill="#D5206D" d="M112.405,77.668c-0.005-1.272-0.124-2.836-0.563-3.947l19.484,0.364l-0.003-21.235
				c-1.587,1.137-3.531,1.803-5.628,1.801c-5.365,0.001-9.716-4.348-9.716-9.715c0-5.368,4.351-9.717,9.717-9.717
				c2.096,0.001,4.04,0.675,5.629,1.802l-0.007-20.211l-19.604,0.005c0.438-1.114,0.686-2.324,0.685-3.582
				c0-5.367-4.348-9.715-9.717-9.716c-5.36-0.005-9.716,4.349-9.717,9.718c0.002,1.257,0.243,2.463,0.688,3.568l-19.604,0.005
				l-0.014,19.569c1.379-0.739,2.94-1.158,4.607-1.158c5.366,0,9.722,4.356,9.722,9.721c0,5.369-4.349,9.719-9.717,9.717
				c-1.671-0.005-3.238-0.429-4.606-1.157v20.584l19.617,0.004c-0.447,1.107-0.691,2.307-0.692,3.586
				c0,5.354,4.354,9.711,9.716,9.716C108.052,87.393,112.407,83.039,112.405,77.668z"/>
			<path fill="#FFFFFF" d="M102.688,88.276C102.688,88.276,102.688,88.276,102.688,88.276h-0.005
				c-5.846-0.004-10.601-4.76-10.601-10.601c0-0.923,0.118-1.827,0.351-2.701L73.158,74.97V52.027l1.301,0.692
				c1.287,0.685,2.737,1.049,4.193,1.053c4.869,0,8.829-3.962,8.829-8.832c0-4.872-3.964-8.836-8.837-8.836
				c-1.476,0-2.885,0.354-4.188,1.053l-1.305,0.699l0.015-21.934l19.264-0.005c-0.229-0.867-0.347-1.765-0.349-2.682
				c0.002-5.849,4.753-10.605,10.593-10.605c5.855,0.002,10.611,4.757,10.611,10.602c0.001,0.91-0.115,1.813-0.349,2.696
				l19.268-0.004l0.007,22.81l-1.397-0.992c-1.51-1.071-3.279-1.638-5.117-1.639c-4.869,0-8.831,3.962-8.831,8.832
				c0,2.359,0.918,4.576,2.587,6.244c1.667,1.668,3.884,2.586,6.241,2.586c1.856,0,3.623-0.565,5.114-1.635l1.401-1.005
				l0.004,23.861l-19.194-0.358c0.212,1.038,0.269,2.163,0.271,3.036c0.001,2.836-1.102,5.5-3.104,7.504
				C108.184,87.172,105.521,88.276,102.688,88.276z M74.928,73.2l20.045,0.004l-0.491,1.217c-0.416,1.028-0.628,2.124-0.629,3.255
				c0,4.864,3.962,8.826,8.832,8.83l0.003,0.885v-0.885c0,0,0,0,0.001,0c2.358,0,4.577-0.92,6.245-2.589s2.587-3.889,2.587-6.249
				c-0.007-1.533-0.185-2.82-0.502-3.622l-0.487-1.235l19.91,0.372l-0.003-18.765c-1.459,0.735-3.069,1.118-4.735,1.118
				c-2.84,0-5.501-1.102-7.504-3.104c-2.002-2.002-3.104-4.664-3.104-7.496c0-5.846,4.755-10.603,10.602-10.603
				c1.661,0.001,3.274,0.386,4.743,1.124l-0.006-17.762L110.418,17.7l0.474-1.209c0.415-1.055,0.624-2.151,0.624-3.257
				c0-4.869-3.963-8.831-8.832-8.832c-4.873,0-8.831,3.962-8.832,8.833c0.002,1.125,0.213,2.215,0.624,3.238l0.49,1.216
				l-20.031,0.005l-0.011,17.312c1.187-0.446,2.433-0.671,3.721-0.671c5.85,0,10.607,4.758,10.607,10.606
				c0,5.846-4.755,10.602-10.599,10.603c-1.271-0.004-2.537-0.235-3.726-0.676V73.2z"/>
		</g>
	</g>
	<g>
		<g>
			<path fill="#D5206D" d="M70.408,111.612c1.271-0.004,2.467-0.256,3.578-0.697l-0.211,20.691l21.323,0.152
				c-1.137-1.59-1.675-4.759-1.675-6.855c0-5.367,4.352-9.715,9.718-9.716c5.366,0,9.717,4.349,9.717,9.716
				c0,2.097-0.849,4.972-1.975,6.559l20.386,0.076l-0.006-20.617c1.113,0.441,2.321,0.688,3.579,0.688
				c5.368-0.002,9.717-4.35,9.717-9.718c0.007-5.362-4.349-9.718-9.717-9.715c-1.258,0-2.463,0.239-3.567,0.683l0.115-18.877
				h-19.327c0.737,1.379,0.795,2.204,0.793,3.871c0.002,5.365-4.354,9.721-9.72,9.721s-9.717-4.352-9.717-9.717
				c0.004-1.671,0.285-2.436,1.015-3.802l-20.443-0.073l-0.005,18.885c-1.104-0.445-2.304-0.691-3.583-0.69
				c-5.356,0-9.712,4.354-9.717,9.715C60.687,107.256,65.041,111.612,70.408,111.612z"/>
			
				<linearGradient id="SVGID_2_" gradientUnits="userSpaceOnUse" x1="48.9019" y1="82.2495" x2="48.9019" y2="165.9595" gradientTransform="matrix(0.7071 -0.7071 0.7071 0.7071 -19.7427 49.6237)">
				<stop  offset="0" style="stop-color:#FFFFFF"/>
				<stop  offset="0.0457" style="stop-color:#FDFDFD"/>
				<stop  offset="0.0622" style="stop-color:#F7F7F6"/>
				<stop  offset="0.0739" style="stop-color:#EBEBEB"/>
				<stop  offset="0.0833" style="stop-color:#DBDBDA"/>
				<stop  offset="0.0869" style="stop-color:#D3D3D1"/>
				<stop  offset="0.1026" style="stop-color:#DBDBDA"/>
				<stop  offset="0.1435" style="stop-color:#EBEBEB"/>
				<stop  offset="0.1943" style="stop-color:#F7F7F6"/>
				<stop  offset="0.2656" style="stop-color:#FDFDFD"/>
				<stop  offset="0.4636" style="stop-color:#FFFFFF"/>
			</linearGradient>
			<path fill="url(#SVGID_2_)" d="M96.828,132.655l-23.947-0.17l0.208-20.342c-0.876,0.232-1.771,0.352-2.677,0.354
				c-5.853-0.001-10.61-4.759-10.61-10.607c0.005-5.845,4.762-10.601,10.602-10.601c0.924,0,1.826,0.117,2.698,0.35l0.005-18.546
				l22.8,0.081l-0.691,1.297c-0.69,1.294-0.905,1.93-0.91,3.387c0,4.867,3.962,8.83,8.832,8.83c2.358,0,4.578-0.92,6.247-2.59
				c1.67-1.67,2.589-3.888,2.588-6.246c0.002-1.601-0.054-2.266-0.688-3.454l-0.696-1.303h21.694l-0.113,18.538
				c0.866-0.229,1.761-0.344,2.675-0.344c2.839,0,5.502,1.105,7.505,3.11c2.001,2.003,3.102,4.663,3.097,7.491
				c0,5.844-4.755,10.6-10.601,10.602c-0.912,0-1.814-0.117-2.694-0.35l0.006,20.283l-22.979-0.086l0.986-1.391
				c0.999-1.408,1.812-4.121,1.812-6.047c0-4.869-3.962-8.83-8.832-8.83s-8.832,3.961-8.832,8.83c0,2.051,0.529,4.969,1.509,6.34
				L96.828,132.655z M74.669,130.727l18.953,0.135c-0.739-1.801-1.083-4.173-1.083-5.959c0-5.844,4.757-10.6,10.603-10.602
				c5.847,0,10.603,4.756,10.603,10.602c0,1.773-0.54,3.975-1.342,5.68l17.981,0.066l-0.006-21.031l1.212,0.479
				c1.048,0.415,2.143,0.625,3.253,0.625c4.87-0.001,8.832-3.964,8.832-8.832c0.003-2.355-0.913-4.571-2.58-6.239
				c-1.668-1.67-3.887-2.59-6.246-2.59c-1.13,0-2.22,0.208-3.243,0.619l-1.224,0.49l0.118-19.304h-17.087
				c0.291,0.901,0.331,1.741,0.329,2.987c0.001,2.83-1.103,5.493-3.106,7.497s-4.667,3.107-7.499,3.107
				c-5.847,0-10.602-4.756-10.602-10.602c0.003-1.245,0.155-2.064,0.497-2.922l-18.156-0.065l-0.005,19.307l-1.216-0.49
				c-1.029-0.415-2.119-0.625-3.241-0.625c-4.876,0-8.838,3.961-8.843,8.83c0,4.871,3.965,8.836,8.837,8.836
				c1.106-0.004,2.201-0.218,3.251-0.635l1.226-0.488L74.669,130.727z"/>
		</g>
	</g>
	<g>
		<g>
			<path fill="#D5206D" d="M12.982,55.083c1.271-0.007,3.495-0.56,4.607-1.001l-0.111,20.525l20.488-0.294
				c-1.135-1.59-1.968-3.843-1.968-5.939c0-5.366,4.351-9.716,9.717-9.716c5.366,0,9.717,4.35,9.717,9.716
				c0,2.097-0.886,4.426-2.012,6.013l20.423-0.073l-0.006-19.923c1.113,0.441,2.321,0.688,3.579,0.688
				c5.368,0,9.717-4.349,9.717-9.717c0.006-5.363-4.349-9.718-9.717-9.714c-1.258,0-2.462,0.24-3.567,0.684l-0.007-19.604
				l-19.568-0.013c0.737,1.381,1.158,2.942,1.156,4.61c0.002,5.365-4.353,9.72-9.72,9.72c-5.366,0-9.717-4.35-9.717-9.718
				c0.005-1.67,0.43-3.238,1.158-4.604L16.566,16.72l-0.006,19.615c-1.104-0.444-2.304-0.691-3.583-0.689
				c-5.357,0-9.712,4.354-9.718,9.714C3.26,50.726,7.615,55.081,12.982,55.083z"/>
			<path fill="#FFFFFF" d="M38.628,15.836l-0.694,1.302c-0.686,1.283-1.05,2.732-1.055,4.189c0,4.868,3.962,8.83,8.832,8.83
				c2.359,0,4.578-0.919,6.247-2.589s2.589-3.887,2.588-6.246c0.002-1.473-0.353-2.883-1.052-4.193l-0.696-1.303l21.93,0.015
				l0.007,19.264c0.868-0.229,1.767-0.345,2.683-0.345c2.839,0,5.502,1.104,7.505,3.109c2.001,2.003,3.101,4.664,3.097,7.492
				c0,5.844-4.755,10.601-10.602,10.601c-0.912,0-1.813-0.118-2.693-0.351l0.006,19.583l-23.027,0.083l0.997-1.403
				c1.122-1.583,1.849-3.742,1.849-5.5c0-4.87-3.962-8.831-8.832-8.831c-4.87,0-8.832,3.962-8.832,8.831
				c0,1.788,0.691,3.867,1.804,5.425l0.982,1.375l-23.081,0.333l0.109-20.196c-1.171,0.337-2.67,0.654-3.711,0.66
				C7.133,55.966,2.375,51.207,2.375,45.36c0.006-5.845,4.763-10.6,10.603-10.6c0.924,0,1.825,0.117,2.698,0.349l0.005-19.275
				 M18.481,52.775l-0.112,20.934l18.044-0.259c-0.818-1.599-1.299-3.437-1.299-5.077c0-5.845,4.756-10.601,10.602-10.602
				c5.847,0,10.602,4.756,10.602,10.602c0,1.639-0.49,3.493-1.326,5.122l17.967-0.064l-0.006-20.344l1.212,0.48
				c1.047,0.415,2.142,0.625,3.253,0.625c4.87,0,8.832-3.962,8.832-8.832c0.003-2.356-0.914-4.571-2.58-6.239
				c-1.668-1.67-3.887-2.59-6.246-2.59c-1.13,0-2.219,0.208-3.243,0.62l-1.215,0.488L72.957,17.61l-17.312-0.012
				c0.447,1.19,0.672,2.438,0.671,3.725c0.001,2.83-1.103,5.493-3.106,7.497s-4.667,3.107-7.499,3.107
				c-5.847,0-10.602-4.756-10.602-10.603c0.004-1.27,0.234-2.533,0.676-3.718l-18.334-0.001l-0.006,20.04l-1.215-0.489
				c-1.032-0.415-2.121-0.625-3.238-0.625c-4.88,0-8.842,3.961-8.848,8.83c0,4.87,3.966,8.835,8.839,8.837
				c1.091-0.006,3.198-0.509,4.28-0.939L18.481,52.775z"/>
		</g>
	</g>
</g>
</svg>
