<?xml version="1.0" encoding="utf-8"?>
<!-- Generator: Adobe Illustrator 15.0.2, SVG Export Plug-In . SVG Version: 6.00 Build 0)  -->
<!DOCTYPE svg PUBLIC "-//W3C//DTD SVG 1.1//EN" "http://www.w3.org/Graphics/SVG/1.1/DTD/svg11.dtd">
<svg version="1.1" id="レイヤー_1" xmlns="http://www.w3.org/2000/svg" xmlns:xlink="http://www.w3.org/1999/xlink" x="0px"
	 y="0px" width="148.75px" height="148.75px" viewBox="0 0 148.75 148.75" enable-background="new 0 0 148.75 148.75"
	 xml:space="preserve">
<path fill="#D5206D" d="M1.727,58.206V12.813c0-1.898,0.754-3.718,2.096-5.06l3.131-3.131c1.342-1.342,3.163-2.096,5.06-2.096
	h47.868c1.843,0,3.615,0.711,4.946,1.985l80.564,77.062c2.878,2.753,2.954,7.326,0.169,10.174l-52.047,53.219
	c-2.813,2.875-7.442,2.869-10.246-0.014L3.753,63.195C2.454,61.859,1.727,60.069,1.727,58.206z M25.641,15.342
	c-6.382,0-11.557,5.174-11.557,11.557s5.174,11.557,11.557,11.557c6.383,0,11.557-5.174,11.557-11.557S32.024,15.342,25.641,15.342z
	"/>
</svg>
