<?xml version="1.0" encoding="utf-8"?>
<!-- Generator: Adobe Illustrator 15.0.2, SVG Export Plug-In . SVG Version: 6.00 Build 0)  -->
<!DOCTYPE svg PUBLIC "-//W3C//DTD SVG 1.1//EN" "http://www.w3.org/Graphics/SVG/1.1/DTD/svg11.dtd">
<svg version="1.1" id="レイヤー_1" xmlns="http://www.w3.org/2000/svg" xmlns:xlink="http://www.w3.org/1999/xlink" x="0px"
	 y="0px" width="148.75px" height="148.75px" viewBox="0 0 148.75 148.75" enable-background="new 0 0 148.75 148.75"
	 xml:space="preserve">
<g>
	<g>
		<path fill="#E61673" d="M106.318,125.813c-0.162,0-0.327-0.029-0.484-0.092c-6.558-2.578-11.662-6.002-15.187-10.182h-0.435
			c-7.089,0-13.304-2.152-18.473-6.398c-5.12-4.321-7.709-9.635-7.709-15.806c0-3.708,0.954-7.126,2.841-10.188
			c-2.524-0.523-4.917-1.311-7.149-2.355v2.006c0,8.064-4.24,12.328-12.262,12.328H33.375c-4.119,5.847-9.349,10.349-15.557,13.387
			c-0.536,0.261-1.182,0.133-1.576-0.313c-0.395-0.448-0.442-1.104-0.115-1.604c2.476-3.789,3.62-7.642,3.412-11.471h-5.418
			c-5.378,0-9.055-1.872-10.926-5.564c-0.93-1.812-1.403-4.089-1.403-6.764V59.001c0-8.108,4.264-12.395,12.329-12.395h33.34
			c0.003,0,0.006,0,0.009,0c1.445-2.362,3.359-4.551,5.7-6.517c1.965-1.636,4.081-3.015,6.306-4.108
			c-0.335-3.792-2.147-7.063-5.524-9.979c-0.442-0.382-0.582-1.008-0.345-1.542c0.238-0.535,0.789-0.854,1.378-0.776
			c8.43,1.065,14.762,4.116,18.833,9.07h0.62c8.233,0,15.387,2.466,21.261,7.331c2.338,1.988,4.22,4.18,5.618,6.538
			c2.048-1.287,4.681-1.938,7.853-1.938h1.875c0.946-6.603,4.343-12.888,10.109-18.697c0.432-0.434,1.105-0.519,1.628-0.199
			c0.524,0.318,0.762,0.954,0.576,1.537c-1.84,5.758-1.934,11.593-0.28,17.36h10.749c8.325,0,12.727,4.378,12.727,12.66v24.657
			c0,8.282-4.401,12.659-12.727,12.659h-17.407c-0.35,5.611-2.944,10.475-7.725,14.473c-1.701,1.378-3.502,2.549-5.375,3.499
			c0.293,3.484,1.678,7.231,4.125,11.153c0.302,0.486,0.26,1.111-0.106,1.551C107.081,125.645,106.705,125.813,106.318,125.813z
			 M70.183,83.013c-2.322,3.016-3.5,6.489-3.5,10.322c0,5.429,2.209,9.933,6.754,13.769c4.669,3.834,10.317,5.785,16.776,5.785
			h1.061c0.401,0,0.782,0.182,1.034,0.496c2.611,3.255,6.285,6.043,10.951,8.316c-1.649-3.402-2.535-6.695-2.639-9.829
			c-0.018-0.53,0.282-1.02,0.763-1.245c1.971-0.922,3.863-2.113,5.626-3.541c4.571-3.822,6.8-8.324,6.8-13.751
			c0-5.468-2.228-9.969-6.81-13.759c-2.807-2.388-6.019-4.057-9.559-4.974c-0.01-0.002-0.019-0.005-0.028-0.007
			c-0.026-0.008-0.053-0.016-0.078-0.024c-0.1-0.033-0.214-0.065-0.344-0.098c-2.098-0.502-4.378-0.757-6.777-0.757
			c-6.456,0-12.104,1.971-16.785,5.858c-1.234,1.029-2.32,2.177-3.223,3.408c-0.002,0.003-0.004,0.006-0.007,0.009v0.001
			c-0.001,0.001-0.001,0.002-0.002,0.002C70.191,83,70.188,83.007,70.183,83.013z M14.121,49.257c-6.603,0-9.678,3.096-9.678,9.744
			v23.796c0,2.25,0.375,4.119,1.113,5.559c1.406,2.773,4.206,4.118,8.564,4.118h6.628c0.668,0,1.232,0.497,1.315,1.159
			c0.436,3.447-0.071,6.894-1.505,10.289c4.297-2.778,7.993-6.42,11.025-10.869c0.247-0.362,0.657-0.579,1.095-0.579h14.781
			c6.557,0,9.611-3.075,9.611-9.677V59.001c0-6.362-2.836-9.438-8.924-9.678c-0.022,0-0.045-0.002-0.068-0.004
			c-0.042-0.003-0.085-0.009-0.126-0.016c-0.179-0.029-0.344-0.046-0.493-0.046H14.121z M116.42,92.01h17.406
			c6.874,0,10.075-3.181,10.075-10.009V57.344c0-6.828-3.201-10.008-10.075-10.008h-11.732c-0.576,0-1.087-0.373-1.263-0.922
			c-1.553-4.862-1.962-9.775-1.227-14.664c-3.542,4.583-5.578,9.406-6.066,14.39c-0.067,0.678-0.638,1.196-1.319,1.196h-3.05
			c-2.745,0-4.957,0.548-6.595,1.63c1.387,2.838,2.088,5.963,2.088,9.307c0,5.311-1.697,10.083-5.049,14.202
			c3.339,1.073,6.39,2.775,9.089,5.071C113.477,81.492,116.072,86.357,116.42,92.01z M59.723,77.832
			c2.684,1.409,5.65,2.395,8.839,2.936c0.923-1.16,1.986-2.244,3.171-3.231c5.172-4.295,11.39-6.472,18.48-6.472
			c2.296,0,4.5,0.217,6.564,0.645c0.026-0.03,0.054-0.058,0.083-0.086c3.443-3.894,5.15-8.353,5.15-13.351
			c0-3.289-0.769-6.326-2.283-9.029c-0.001-0.002-0.002-0.005-0.004-0.007c0,0-0.001-0.002-0.002-0.003
			c-0.001-0.001,0,0-0.002-0.003c-0.009-0.016-0.017-0.033-0.025-0.05c-1.283-2.563-3.201-4.94-5.7-7.065
			c-5.372-4.449-11.957-6.71-19.557-6.71h-1.26c-0.411,0-0.799-0.191-1.05-0.517c-2.985-3.877-7.534-6.522-13.553-7.89
			c2.286,2.908,3.494,6.178,3.6,9.76c0.016,0.533-0.29,1.024-0.776,1.245c-2.311,1.051-4.507,2.437-6.527,4.121
			c-1.747,1.466-3.228,3.064-4.42,4.767c6.077,0.992,9.271,5.14,9.271,12.111V77.832z"/>
	</g>
	<path fill="#E61673" d="M59.723,77.832c2.684,1.409,5.65,2.395,8.839,2.936c0.923-1.16,1.986-2.244,3.171-3.231
		c5.172-4.295,11.39-6.472,18.48-6.472c2.296,0,4.5,0.217,6.564,0.645c0.026-0.03,0.054-0.058,0.083-0.086
		c3.443-3.894,5.15-8.353,5.15-13.351c0-3.289-0.769-6.326-2.283-9.029c-0.001-0.002-0.002-0.005-0.004-0.007
		c0,0-0.001-0.002-0.002-0.003c-0.001-0.001,0,0-0.002-0.003c-0.009-0.016-0.017-0.033-0.025-0.05
		c-1.283-2.563-3.201-4.94-5.7-7.065c-5.372-4.449-11.957-6.71-19.557-6.71h-1.26c-0.411,0-0.799-0.191-1.05-0.517
		c-2.985-3.877-7.534-6.522-13.553-7.89c2.286,2.908,3.494,6.178,3.6,9.76c0.016,0.533-0.29,1.024-0.776,1.245
		c-2.311,1.051-4.507,2.437-6.527,4.121c-1.747,1.466-3.228,3.064-4.42,4.767c6.077,0.992,9.271,5.14,9.271,12.111V77.832z"/>
</g>
</svg>
