<?xml version="1.0" encoding="utf-8"?>
<!-- Generator: Adobe Illustrator 15.0.2, SVG Export Plug-In . SVG Version: 6.00 Build 0)  -->
<!DOCTYPE svg PUBLIC "-//W3C//DTD SVG 1.1//EN" "http://www.w3.org/Graphics/SVG/1.1/DTD/svg11.dtd">
<svg version="1.1" id="レイヤー_1" xmlns="http://www.w3.org/2000/svg" xmlns:xlink="http://www.w3.org/1999/xlink" x="0px"
	 y="0px" width="148.75px" height="148.75px" viewBox="0 0 148.75 148.75" enable-background="new 0 0 148.75 148.75"
	 xml:space="preserve">
<g>
	<path fill="#D5206D" d="M71.828,34.669c-9.457-0.036-16.916-8.05-16.942-17.688V5.153H18.073C4.051,5.153,5.676,4.25,5.676,17.541
		v76.792c0,13.542-0.058,12.392,12.397,12.392h25.068l39.278-54.678V34.669H71.828z M71.828,29.122h10.526
		c-0.398-6.054,1.342-20.81-0.658-22.622c-1.5-1.359-13.467-0.725-21.246-1.236v11.718C60.45,23.743,65.691,29.108,71.828,29.122z"
		/>
	<path fill="#D5206D" d="M70.32,125.073l-5.563-3.964l50.47-70.258l-6.251-4.465l-50.457,70.249l-5.538-3.955l50.462-70.259
		l-5.316-3.795l-50.46,70.258l-3.119,18.225l0.04,0.053l-0.044-0.035l-1.765,10.131c0,0-1.065,3.398,1.792,5.439
		c2.851,2.051,5.747-0.053,5.747-0.053l9.046-4.92l-0.048-0.034l0.048,0.017l16.312-8.794h0.004l50.465-70.258l-5.361-3.826
		L70.32,125.073z M54.34,134.048l-2.333-1.701l-2.363-1.653l2.773-15.328l15.571,11.136L54.34,134.048z M140.902,21.214l-11.878-8.5
		c-4.415-3.165-10.054-2.879-12.584,0.621l-9.881,13.755l22.294,15.949l9.411-13.106l0.037-0.219c1.07-1.49,2.798-5.265-1.278-8.175
		c0,0,7.823,4.718,3.985,10.096l0.113,0.08l-9.543,13.269l2.896,2.071l9.879-13.749C146.883,29.792,145.333,24.374,140.902,21.214z
		 M129.13,50.089l-23.739-16.974c-1.172-0.841-2.645-0.758-3.311,0.164l-0.423,0.6c-0.67,0.925-0.265,2.35,0.908,3.184
		l23.726,16.972c1.166,0.834,2.655,0.759,3.314-0.162l0.42-0.601C130.695,52.346,130.304,50.922,129.13,50.089z"/>
</g>
</svg>
