<?xml version="1.0" encoding="utf-8"?>
<!-- Generator: Adobe Illustrator 15.0.2, SVG Export Plug-In . SVG Version: 6.00 Build 0)  -->
<!DOCTYPE svg PUBLIC "-//W3C//DTD SVG 1.1//EN" "http://www.w3.org/Graphics/SVG/1.1/DTD/svg11.dtd">
<svg version="1.1" id="レイヤー_1" xmlns="http://www.w3.org/2000/svg" xmlns:xlink="http://www.w3.org/1999/xlink" x="0px"
	 y="0px" width="148.75px" height="148.75px" viewBox="0 0 148.75 148.75" enable-background="new 0 0 148.75 148.75"
	 xml:space="preserve">
<g>
	<g transform="matrix( 1, 0, 0, 1, -8.75,-7) ">
		<g>
			<path fill="#E61673" d="M64.215,143.117c-0.515,0-1.026-0.159-1.457-0.474c-0.735-0.534-1.117-1.429-0.997-2.329l5.572-41.115
				c0.056-0.404,0.21-0.789,0.451-1.117l51.254-70.445c0.489-0.672,1.256-1.074,2.113-1.018c3.926,0.177,7.65,0.844,11.07,1.98
				c3.707,1.446,6.99,3.267,9.875,5.455c2.579,2.043,5.007,4.515,7.26,7.373c2.041,2.836,3.908,6.047,5.613,9.631
				c0.389,0.817,0.301,1.782-0.23,2.518l-51.131,70.567c-0.24,0.332-0.559,0.598-0.928,0.777l-37.4,17.955
				C64.942,143.037,64.578,143.117,64.215,143.117z M72.155,100.49l-4.88,35.949l32.69-15.708l49.893-68.859
				c-1.397-2.786-2.893-5.293-4.456-7.467c-1.949-2.471-4.104-4.667-6.337-6.439c-2.48-1.879-5.363-3.475-8.525-4.711
				c-2.502-0.829-5.313-1.38-8.293-1.61L72.155,100.49z"/>
		</g>
		<g>
			<path fill="#E61673" d="M82.908,133.583c-0.797,0-1.534-0.518-1.776-1.32c-2.139-7.083-6.779-10.412-14.137-10.192
				c-0.944,0.027-1.88-0.775-1.912-1.801s0.775-1.881,1.8-1.913c9.002-0.288,15.184,4.164,17.803,12.833
				c0.298,0.981-0.259,2.019-1.24,2.314C83.267,133.559,83.086,133.583,82.908,133.583z M101.605,124.547
				c-0.667,0-1.313-0.36-1.646-0.994c-1.675-3.191-3.53-6.096-5.515-8.635c-1.973-2.273-4.27-4.333-6.77-6.05
				c-2.578-2.009-5.462-3.627-8.66-4.877c-2.865-1.192-6.056-2.067-9.521-2.621c-1.013-0.159-1.704-1.112-1.542-2.126
				c0.161-1.01,1.116-1.707,2.125-1.54c3.755,0.597,7.23,1.555,10.327,2.844c3.496,1.364,6.694,3.161,9.467,5.327
				c2.667,1.828,5.201,4.101,7.44,6.684c2.182,2.787,4.158,5.881,5.936,9.268c0.477,0.91,0.127,2.031-0.78,2.508
				C102.191,124.479,101.896,124.547,101.605,124.547z"/>
		</g>
	</g>
	<g transform="matrix( 1.079986572265625, 0, 0, 1.079986572265625, -19.8,-34.05) ">
		<g transform="matrix( 0.925933837890625, 0, 0, 0.925933837890625, 18.35,31.55) ">
			<path fill="#E61673" d="M49.855,78.032H22.99c-1.266,0-2.293-1.025-2.293-2.293V48.875c0-1.268,1.026-2.293,2.293-2.293h26.865
				c1.266,0,2.292,1.025,2.292,2.293v26.865C52.147,77.007,51.121,78.032,49.855,78.032z M25.283,73.447h22.279V51.167H25.283
				V73.447z"/>
		</g>
	</g>
	<g transform="matrix( 1.079986572265625, 0, 0, 1.079986572265625, -19.8,-34.05) ">
		<g transform="matrix( 0.925933837890625, 0, 0, 0.925933837890625, 18.35,31.55) ">
			<path fill="#E61673" d="M49.855,120.745H22.99c-1.266,0-2.293-1.025-2.293-2.292V91.587c0-1.267,1.026-2.292,2.293-2.292h26.865
				c1.266,0,2.292,1.025,2.292,2.292v26.866C52.147,119.72,51.121,120.745,49.855,120.745z M25.283,116.159h22.279v-22.28H25.283
				V116.159z"/>
		</g>
	</g>
	<g transform="matrix( 1.079986572265625, 0, 0, 1.079986572265625, -19.8,-34.05) ">
		<g transform="matrix( 0.925933837890625, 0, 0, 0.925933837890625, 18.35,31.55) ">
			<path fill="#E61673" d="M49.855,163.457H22.99c-1.266,0-2.293-1.025-2.293-2.292V134.3c0-1.268,1.026-2.293,2.293-2.293h26.865
				c1.266,0,2.292,1.025,2.292,2.293v26.865C52.147,162.432,51.121,163.457,49.855,163.457z M25.283,158.872h22.279v-22.279H25.283
				V158.872z"/>
		</g>
	</g>
	<g transform="matrix( 0.9399871826171875, 0, 0, 0.9399871826171875, -4.4,14.4) ">
		<g transform="matrix( 1.0638427734375, 0, 0, 1.0638427734375, 4.7,-15.3) ">
			<path fill="#E61673" d="M25.909,126.743c-0.171,0-0.341-0.023-0.504-0.064c-0.261-0.069-0.498-0.187-0.701-0.345
				c-0.215-0.164-0.4-0.378-0.535-0.63c-0.105-0.195-0.179-0.406-0.213-0.63l0,0c0-0.003,0-0.003,0-0.006
				c-0.037-0.237-0.03-0.478,0.019-0.71l1.572-7.861l-7,6.164c-0.819,0.725-2.067,0.643-2.788-0.176
				c-0.72-0.821-0.642-2.067,0.178-2.788l11.389-10.03c0.637-0.561,1.56-0.65,2.292-0.229c0.735,0.422,1.117,1.267,0.951,2.099
				l-1.948,9.747l4.732-2.261c0.985-0.472,2.162-0.057,2.634,0.931c0.471,0.985,0.053,2.163-0.931,2.634l-8.28,3.954
				c-0.188,0.092-0.391,0.155-0.603,0.183c-0.002,0-0.004,0.01-0.005,0.003C26.08,126.738,25.994,126.743,25.909,126.743z"/>
		</g>
	</g>
	<path fill="#E61673" d="M63.308,91.061c-1.724-0.796,42.489-65.634,49.881-67.961c7.391-2.328,32.881,19.073,30.875,23.987
		s-47.767,69.912-49.566,67.739C84.793,103.108,77.674,97.691,63.308,91.061z"/>
	<path fill="#E61673" d="M57.533,113.733c-1.8,1.913-1.042,20.071-1.042,20.071s16.443-5.219,16.714-6.963
		C74.425,118.963,59.333,111.82,57.533,113.733z"/>
</g>
</svg>
