<?xml version="1.0" encoding="utf-8"?>
<!-- Generator: Adobe Illustrator 15.0.2, SVG Export Plug-In . SVG Version: 6.00 Build 0)  -->
<!DOCTYPE svg PUBLIC "-//W3C//DTD SVG 1.1//EN" "http://www.w3.org/Graphics/SVG/1.1/DTD/svg11.dtd">
<svg version="1.1" id="レイヤー_1" xmlns="http://www.w3.org/2000/svg" xmlns:xlink="http://www.w3.org/1999/xlink" x="0px"
	 y="0px" width="148.75px" height="148.75px" viewBox="0 0 148.75 148.75" enable-background="new 0 0 148.75 148.75"
	 xml:space="preserve">
<g transform="matrix( 1, 0, 0, 1, -41,319.6) ">
	<g>
		<path fill="#D5206D" d="M176.388-173.161H77.704c-0.157,0-0.313-0.02-0.465-0.06c-14.441-3.761-21.273-7.909-21.503-13.057
			l-0.002-0.545v-119.641c0.072-2.488,0.767-4.707,2.064-6.655c1.579-2.406,3.868-3.858,6.795-4.307
			c0.092-0.015,0.186-0.021,0.279-0.021h93.237c1.02,0,1.847,0.825,1.847,1.846v5.426l9.543,8.144h6.889
			c1.02,0,1.846,0.826,1.846,1.847v125.178C178.233-173.987,177.407-173.161,176.388-173.161z M77.941-176.854h96.6v-121.485h-5.711
			c-0.009,0-0.017,0-0.025,0H78.996c-0.123,0-0.246-0.012-0.366-0.035c-8.029-1.627-12.871-3.854-14.805-6.809
			c-0.898-1.374-1.192-2.938-0.849-4.531c0.183-0.849,0.935-1.456,1.805-1.456h91.482v-2.584H65.02
			c-1.809,0.308-3.166,1.183-4.144,2.674c-0.927,1.392-1.4,2.915-1.451,4.671l0.001,120.049
			C59.488-185,61.428-181.185,77.941-176.854z M79.182-302.032h84.629l-6.382-5.446H66.756c0.046,0.09,0.098,0.182,0.159,0.273
			C67.833-305.799,70.711-303.768,79.182-302.032z M78.996-184.609c-1.02,0-1.846-0.826-1.846-1.846v-100.345
			c0-1.021,0.827-1.847,1.846-1.847s1.846,0.826,1.846,1.847v100.345C80.842-185.435,80.016-184.609,78.996-184.609z"/>
	</g>
</g>
</svg>
