<?xml version="1.0" encoding="utf-8"?>
<!-- Generator: Adobe Illustrator 19.2.1, SVG Export Plug-In . SVG Version: 6.00 Build 0)  -->
<svg version="1.1" id="レイヤー_1" xmlns="http://www.w3.org/2000/svg" xmlns:xlink="http://www.w3.org/1999/xlink" x="0px"
	 y="0px" viewBox="0 0 154.9 158.2" style="enable-background:new 0 0 154.9 158.2;" xml:space="preserve">
<style type="text/css">
	.st0{fill-rule:evenodd;clip-rule:evenodd;fill:#FFFFFF;}
	.st1{fill-rule:evenodd;clip-rule:evenodd;fill:#D5206C;}
</style>
<polygon class="st0" points="6.7,67.5 48.5,45.6 101.7,74.1 149.2,51.3 149.2,126.4 102.6,152 51.3,130.2 6.7,144.4 "/>
<path class="st1" d="M9.5,59.9C5.7,62.7,0,69.4,0,77.9v65.6c1.9,11.4,10.5,12.4,19,5.7l22.8-13.3c5.7-4.8,13.3-3.8,18.1,0l29.5,18.1
	c8.6,6.7,20.9,4.8,28.5,0l25.7-15.2c3.8-1.9,8.6-6.7,10.5-16.2l1-62.7c0-11.4-5.7-18.1-15.2-14.3l-23.8,14.3
	c-9.5,6.7-16.2,8.6-26.6,0c0,0-29.5-18.1-28.5-18.1c-6.7-2.9-15.2-2.9-20.9,0C39.9,41.8,10.5,59.9,9.5,59.9z M16.2,68.4l26.6-16.2
	c4.8-2.9,11.4-2.9,14.3,0l31.4,19c10.5,8.6,24.7,2.9,27.6,0l28.5-16.2v61.8c0,0,1,10.5-7.6,14.3l-23.8,13.3c-3.8,2.9-11.4,6.7-19,0
	l-32.3-20c-6.7-2.9-15.2-2.9-20.9,0l-31.4,19V81.7C9.5,72.2,16.2,68.4,16.2,68.4z"/>
<rect x="47.5" y="81.7" class="st1" width="5.7" height="29.5"/>
<rect x="100.7" y="87.4" class="st1" width="6.7" height="47.5"/>
<rect x="12.4" y="16.2" class="st1" width="124.5" height="5.7"/>
<polygon class="st1" points="27.6,19 2.9,0 2.9,37.1 "/>
<polygon class="st1" points="127.3,19 152,0 152,37.1 "/>
</svg>
