<?xml version="1.0" encoding="utf-8"?>
<!-- Generator: Adobe Illustrator 19.2.1, SVG Export Plug-In . SVG Version: 6.00 Build 0)  -->
<svg version="1.1" id="レイヤー_1" xmlns="http://www.w3.org/2000/svg" xmlns:xlink="http://www.w3.org/1999/xlink" x="0px"
	 y="0px" viewBox="0 0 100.7 158.7" style="enable-background:new 0 0 100.7 158.7;" xml:space="preserve">
<style type="text/css">
	.st0{fill-rule:evenodd;clip-rule:evenodd;fill:#E51472;}
	.st1{fill-rule:evenodd;clip-rule:evenodd;fill:#FFFFFF;}
	.st2{fill-rule:evenodd;clip-rule:evenodd;fill:#540729;}
</style>
<g>
	<g>
		<path class="st0" d="M100.7,49.4c0-6.7-3.8-9.5-11.4-9.5H9.5c0,0,1,2.9,1,9.5v92.2c0,5.7,0,8.6,0,8.6h78.9
			c7.6,0,11.4-2.9,11.4-8.6V49.4z"/>
	</g>
	<g>
		<path class="st1" d="M94.3,58c0-5.7-3.8-8.6-11.4-8.6H7.8v82.7c0,5.7,0,9.5,0,9.5h74.4c7.6,0,11.4-3.8,11.4-9.5L94.3,58z"/>
	</g>
</g>
<polygon class="st2" points="9.5,39.9 70.3,47.5 70.3,94.1 9.5,94.1 "/>
<g>
	<g>
		<path class="st0" d="M0,57c0-5.7,2.9-9.5,8.6-9.5h61.8c0,0,0,3.8,0,9.5v92.2c0,5.7,0,9.5,0,9.5H8.6c-5.7,0-8.6-3.8-8.6-9.5V57z"/>
	</g>
	<g>
		<path class="st1" d="M8.6,66.5c0-6.7,3.8-9.5,9.5-9.5h42.8c0,0,0,2.9,0,9.5v73.2c0,6.7,0,9.5,0,9.5H18.1c-5.7,0-9.5-2.9-9.5-9.5
			V66.5z"/>
	</g>
</g>
<rect x="11.4" y="16.2" class="st0" width="77" height="5.7"/>
<polygon class="st0" points="1.9,19 26.6,0 26.6,37.1 "/>
<polygon class="st0" points="97.9,19 73.2,0 73.2,37.1 "/>
</svg>
