<?xml version="1.0" encoding="utf-8"?>
<!-- Generator: Adobe Illustrator 15.0.2, SVG Export Plug-In . SVG Version: 6.00 Build 0)  -->
<!DOCTYPE svg PUBLIC "-//W3C//DTD SVG 1.1//EN" "http://www.w3.org/Graphics/SVG/1.1/DTD/svg11.dtd">
<svg version="1.1" id="レイヤー_1" xmlns="http://www.w3.org/2000/svg" xmlns:xlink="http://www.w3.org/1999/xlink" x="0px"
	 y="0px" width="148.75px" height="148.75px" viewBox="0 0 148.75 148.75" enable-background="new 0 0 148.75 148.75"
	 xml:space="preserve">
<g transform="matrix( 1, 0, 0, 1, -47,-52) ">
	<g>
		<polygon fill="#E61673" points="152.387,177.008 112.502,177.008 102.184,179.843 92.806,177.008 50.752,177.008 50.752,124.538 
			152.387,124.538 		"/>
		<path fill="#E61673" d="M56.408,122.538v46.486c4.846-0.401,12.894-1.767,23.968-4.065c9.214-1.213,15.891-0.206,19.966,2.985
			v-49.962c-3.034-4.025-9.601-5.404-19.535-4.098c-11.232,2.334-19.451,3.719-24.399,4.112V122.538z"/>
		<path fill="#FFFFFF" d="M101.141,179.843c-3.118,0-5.764-0.284-7.865-0.843c-0.398-0.106-0.726-0.392-0.885-0.772l-0.522-1.247
			H51.282c-0.735,0-1.332-0.595-1.332-1.331v-52.655c0-0.735,0.596-1.332,1.332-1.332h2.463v-4.327c0-0.711,0.558-1.296,1.269-1.33
			c4.612-0.217,13.145-1.575,25.362-4.037c10.306-1.316,17.434,0.061,21.303,4.084c1.384-1.429,3.157-2.516,5.292-3.241
			c0.7-0.235,1.453,0.138,1.688,0.833c0.236,0.696-0.137,1.452-0.833,1.688c-2.083,0.707-3.665,1.77-4.821,3.243v48.509
			c4.12-3.125,10.807-4.113,19.939-2.943c2.404,0.268,6.966,1.057,13.534,2.344c4.469,0.836,8.002,1.374,10.527,1.605v-30.188
			c0-0.736,0.596-1.332,1.331-1.332s1.331,0.596,1.331,1.332v31.619c0,0.365-0.148,0.714-0.414,0.965
			c-0.264,0.252-0.609,0.393-0.984,0.365c-2.699-0.137-6.721-0.71-12.292-1.752c-6.509-1.275-10.996-2.054-13.349-2.314
			c-10.177-1.305-16.857,0.144-19.866,4.302c-0.033,0.047-0.069,0.093-0.108,0.134c0,0,0.004,0.002-0.001,0.002
			c-0.028,0.031-0.057,0.059-0.087,0.086h0c-0.001,0.002-0.001,0.002-0.001,0.002c-0.469,0.422-1.298,0.426-1.769,0.01h-0.001
			l-0.001-0.001c-0.04-0.035-0.078-0.073-0.113-0.111c0,0-0.001,0-0.001-0.001c0,0,0,0-0.001-0.002
			c-0.038-0.041-0.072-0.086-0.104-0.133c-2.923-4.148-9.571-5.594-19.768-4.29c-12.25,2.47-20.918,3.845-25.667,4.069
			c-0.366,0.028-0.719-0.115-0.982-0.367c-0.263-0.25-0.412-0.6-0.412-0.963v-45.199h-1.132v49.992h40.141
			c0.536,0,1.021,0.323,1.228,0.816l0.605,1.445c1.778,0.398,3.979,0.601,6.554,0.601c2.638,0,5.257-0.22,7.795-0.654l0.644-1.425
			c0.215-0.476,0.69-0.783,1.213-0.783H150.8v-36.412c0-0.736,0.597-1.332,1.331-1.332c0.735,0,1.332,0.596,1.332,1.332v37.744
			c0,0.736-0.597,1.331-1.332,1.331h-40.479l-0.579,1.28c-0.179,0.396-0.54,0.681-0.968,0.762
			C107.196,179.567,104.18,179.843,101.141,179.843z M56.408,122.995v45.109c4.846-0.39,12.894-1.716,23.968-3.944
			c9.214-1.178,15.891-0.201,19.966,2.896v-48.483c-3.034-3.906-9.601-5.244-19.535-3.977c-11.232,2.266-19.451,3.609-24.399,3.99
			V122.995z"/>
		<path fill="#E61673" d="M148.473,117.739c-5.203-0.339-13.852-1.634-25.678-3.846c-10.451-1.198-17.335,0.252-20.481,4.31
			l0.517,49.959c4.249-3.235,11.253-4.315,20.947-3.202c11.658,2.178,20.129,3.455,25.225,3.805l-0.482-46.483L148.473,117.739z"/>
	</g>
</g>
<g transform="matrix( 1, 0, 0, 1, -47,-52) ">
	<g>
		<path fill="#FFFFFF" d="M117.153,153.442c-0.266,0-0.532-0.08-0.761-0.239c-0.464-0.323-0.673-0.903-0.522-1.448l5.938-21.391
			c-0.238-0.18-0.466-0.367-0.681-0.559c-8.313-6.435-12.562-14.448-12.562-23.76c0-9.355,4.25-17.391,12.632-23.884
			c8.278-6.413,18.384-9.665,30.038-9.665s21.74,3.252,29.975,9.667c8.378,6.492,12.628,14.528,12.628,23.883
			c0,9.313-4.25,17.326-12.632,23.819c-8.23,6.412-18.315,9.665-29.971,9.665c-4.426,0-8.627-0.457-12.498-1.358l-20.806,15.02
			C117.7,153.357,117.427,153.442,117.153,153.442z M151.236,75.159c-11.05,0-20.607,3.064-28.408,9.107
			c-7.696,5.963-11.599,13.291-11.599,21.78c0,8.446,3.902,15.751,11.599,21.713c0.414,0.363,0.805,0.656,1.231,0.928
			c0.494,0.314,0.725,0.916,0.567,1.48l-5.176,18.643l18.225-13.156c0.317-0.229,0.72-0.305,1.098-0.213
			c3.828,0.946,8.021,1.426,12.463,1.426c11.048,0,20.582-3.063,28.337-9.105c7.7-5.964,11.603-13.27,11.603-21.715
			c0-8.489-3.902-15.816-11.599-21.78C171.818,78.222,162.283,75.159,151.236,75.159z"/>
	</g>
</g>
<path fill="#E61673" d="M104.192,23.891c-11.05,0-20.606,3.063-28.407,9.106c-7.697,5.963-11.599,13.291-11.599,21.78
	c0,8.445,3.902,15.751,11.599,21.714c0.414,0.363,0.805,0.656,1.23,0.928c0.494,0.314,0.725,0.915,0.568,1.479l-5.176,18.645
	l18.224-13.156c0.317-0.229,0.721-0.307,1.099-0.213c3.827,0.945,8.02,1.426,12.462,1.426c11.048,0,20.583-3.063,28.338-9.105
	c7.7-5.965,11.603-13.271,11.603-21.716c0-8.489-3.902-15.817-11.6-21.78C124.775,26.954,115.24,23.891,104.192,23.891z"/>
</svg>
