<?xml version="1.0" encoding="utf-8"?>
<!-- Generator: Adobe Illustrator 15.0.2, SVG Export Plug-In . SVG Version: 6.00 Build 0)  -->
<!DOCTYPE svg PUBLIC "-//W3C//DTD SVG 1.1//EN" "http://www.w3.org/Graphics/SVG/1.1/DTD/svg11.dtd">
<svg version="1.1" id="レイヤー_1" xmlns="http://www.w3.org/2000/svg" xmlns:xlink="http://www.w3.org/1999/xlink" x="0px"
	 y="0px" width="148.75px" height="148.75px" viewBox="0 0 148.75 148.75" enable-background="new 0 0 148.75 148.75"
	 xml:space="preserve">
<g>
	<path fill="#D5206D" d="M47.572,9.875L0.53,96.461l50.689,27.55l47.051-86.578L47.572,9.875z M38.96,29.81l2.507-4.607
		c0.185-0.345,0.536-0.521,0.765-0.395l4.988,2.709c0.229,0.127,0.271,0.515,0.082,0.857l-2.511,4.609
		c-0.188,0.343-0.526,0.519-0.768,0.397l-4.977-2.712C38.813,30.545,38.772,30.161,38.96,29.81z M33.064,40.672l2.502-4.613
		c0.188-0.34,0.531-0.52,0.77-0.396l4.979,2.711c0.238,0.126,0.279,0.512,0.091,0.854l-2.511,4.609
		c-0.188,0.348-0.528,0.528-0.761,0.4l-4.989-2.711C32.917,41.398,32.876,41.011,33.064,40.672z M27.163,51.524l2.507-4.614
		c0.188-0.343,0.532-0.519,0.769-0.393l4.981,2.708c0.236,0.127,0.269,0.512,0.089,0.854l-2.511,4.613
		c-0.188,0.344-0.527,0.524-0.761,0.393l-4.988-2.711C27.02,52.251,26.979,51.867,27.163,51.524z M12.499,92.411l-2.502,4.609
		c-0.185,0.347-0.527,0.526-0.766,0.4l-4.988-2.708c-0.229-0.131-0.27-0.515-0.082-0.858l2.507-4.616
		c0.191-0.339,0.531-0.515,0.765-0.389l4.984,2.706C12.65,91.684,12.688,92.067,12.499,92.411z M18.4,81.559l-2.511,4.608
		c-0.18,0.348-0.524,0.524-0.761,0.397l-4.989-2.709c-0.229-0.126-0.261-0.514-0.082-0.854l2.511-4.615
		c0.188-0.34,0.528-0.521,0.761-0.395l4.989,2.711C18.548,80.827,18.588,81.212,18.4,81.559z M15.955,72.141l2.511-4.608
		c0.188-0.343,0.531-0.523,0.769-0.396l4.981,2.712c0.236,0.126,0.269,0.512,0.081,0.854l-2.503,4.613
		c-0.188,0.348-0.531,0.526-0.761,0.396L16.037,73C15.808,72.873,15.767,72.488,15.955,72.141z M52.32,114.047l-2.507,4.618
		c-0.188,0.339-0.531,0.521-0.77,0.394l-4.979-2.712c-0.229-0.127-0.271-0.509-0.082-0.855l2.502-4.609
		c0.188-0.347,0.531-0.523,0.761-0.396l4.988,2.711C52.472,113.323,52.504,113.704,52.32,114.047z M21.856,61.288l2.505-4.608
		c0.193-0.348,0.532-0.523,0.77-0.396l4.98,2.71c0.229,0.128,0.27,0.509,0.082,0.855l-2.502,4.613
		c-0.188,0.343-0.528,0.515-0.761,0.393l-4.985-2.711C21.703,62.018,21.672,61.632,21.856,61.288z M58.22,103.194l-2.51,4.614
		c-0.188,0.342-0.532,0.518-0.762,0.392l-4.988-2.706c-0.229-0.129-0.269-0.514-0.082-0.855l2.512-4.617
		c0.18-0.336,0.532-0.516,0.76-0.393l4.981,2.71C58.367,102.463,58.401,102.852,58.22,103.194z M64.117,92.338l-2.503,4.613
		c-0.196,0.347-0.532,0.526-0.769,0.396l-4.985-2.711c-0.232-0.124-0.269-0.512-0.085-0.855l2.511-4.612
		c0.185-0.339,0.523-0.523,0.761-0.394l4.979,2.707C64.265,91.614,64.297,91.998,64.117,92.338z M70.015,81.484l-2.504,4.613
		c-0.188,0.339-0.531,0.524-0.764,0.396l-4.989-2.71c-0.229-0.128-0.271-0.512-0.086-0.855l2.511-4.613
		c0.184-0.348,0.532-0.522,0.765-0.396l4.985,2.711C70.165,80.758,70.201,81.143,70.015,81.484z M75.321,71.72l-2.503,4.609
		c-0.188,0.342-0.535,0.523-0.765,0.396l-4.988-2.711c-0.229-0.127-0.266-0.512-0.086-0.855l2.503-4.617
		c0.192-0.339,0.532-0.515,0.769-0.384l4.989,2.704C75.469,70.992,75.51,71.373,75.321,71.72z M44.866,18.962l2.498-4.617
		c0.183-0.34,0.535-0.52,0.765-0.393l4.988,2.711c0.233,0.128,0.271,0.507,0.082,0.854l-2.507,4.609
		c-0.192,0.343-0.528,0.522-0.761,0.396l-4.989-2.712C44.715,19.686,44.674,19.301,44.866,18.962z M81.219,60.863l-2.503,4.612
		c-0.188,0.349-0.532,0.524-0.765,0.397l-4.989-2.711c-0.229-0.128-0.267-0.512-0.085-0.855l2.51-4.616
		c0.184-0.335,0.532-0.516,0.765-0.394l4.985,2.712C81.37,60.131,81.405,60.521,81.219,60.863z M87.123,50.01l-2.511,4.613
		c-0.185,0.349-0.531,0.52-0.765,0.396l-4.988-2.715c-0.229-0.123-0.271-0.511-0.078-0.855l2.502-4.608
		c0.188-0.343,0.531-0.523,0.766-0.396l4.984,2.708C87.271,49.278,87.307,49.668,87.123,50.01z M93.016,39.153l-2.502,4.608
		c-0.188,0.345-0.528,0.528-0.77,0.396l-4.985-2.706c-0.228-0.126-0.269-0.512-0.082-0.854l2.503-4.608
		c0.188-0.349,0.536-0.528,0.765-0.4l4.989,2.711C93.166,38.426,93.204,38.811,93.016,39.153z"/>
	<path fill="#D5206D" d="M88.219,58.226l-6.077,6.073v2.028c0,0.27-0.322,0.485-0.715,0.485h-1.28
		c-2.158,4.52-4.18,9.12-6.276,13.618c-4.748,10.174-10.162,19.755-16.435,29.033v2.184c0,0.26-0.327,0.479-0.716,0.479h-1.133
		c-0.907,1.288-1.831,2.543-2.765,3.799h93.159V58.226H88.219z M69.785,111.647c0,0.26-0.323,0.479-0.711,0.479h-5.247
		c-0.396,0-0.711-0.219-0.711-0.479v-5.681c0-0.258,0.314-0.478,0.711-0.478h5.247c0.388,0,0.711,0.22,0.711,0.478V111.647z
		 M82.142,111.647c0,0.26-0.322,0.479-0.715,0.479h-5.246c-0.394,0-0.712-0.219-0.712-0.479v-5.681c0-0.258,0.318-0.478,0.712-0.478
		h5.246c0.393,0,0.715,0.22,0.715,0.478V111.647z M94.491,111.647c0,0.26-0.318,0.479-0.706,0.479h-5.252
		c-0.396,0-0.707-0.219-0.707-0.479v-5.681c0-0.258,0.311-0.478,0.707-0.478h5.252c0.388,0,0.706,0.22,0.706,0.478V111.647z
		 M94.491,66.327c0,0.27-0.318,0.485-0.706,0.485h-5.252c-0.396,0-0.707-0.216-0.707-0.485v-5.673c0-0.266,0.311-0.482,0.707-0.482
		h5.252c0.388,0,0.706,0.217,0.706,0.482V66.327z M105.61,111.647c0,0.26-0.324,0.479-0.712,0.479h-5.246
		c-0.393,0-0.711-0.219-0.711-0.479v-5.675c0-0.264,0.318-0.483,0.711-0.483h5.246c0.388,0,0.712,0.22,0.712,0.483V111.647z
		 M105.61,66.327c0,0.27-0.324,0.485-0.712,0.485h-5.246c-0.393,0-0.711-0.216-0.711-0.485v-5.673c0-0.266,0.318-0.482,0.711-0.482
		h5.246c0.388,0,0.712,0.217,0.712,0.482V66.327z M117.962,111.647c0,0.26-0.318,0.479-0.711,0.479h-5.243
		c-0.393,0-0.72-0.219-0.72-0.479v-5.681c0-0.258,0.327-0.478,0.72-0.478h5.243c0.393,0,0.711,0.22,0.711,0.478V111.647z
		 M117.962,66.327c0,0.27-0.318,0.485-0.711,0.485h-5.243c-0.393,0-0.72-0.216-0.72-0.485v-5.673c0-0.266,0.327-0.482,0.72-0.482
		h5.243c0.393,0,0.711,0.217,0.711,0.482V66.327z M130.32,111.647c0,0.26-0.32,0.479-0.713,0.479h-5.25
		c-0.394,0-0.712-0.219-0.712-0.479v-5.681c0-0.258,0.318-0.478,0.712-0.478h5.25c0.393,0,0.713,0.22,0.713,0.478V111.647z
		 M130.32,66.327c0,0.27-0.32,0.485-0.713,0.485h-5.25c-0.394,0-0.712-0.216-0.712-0.485v-5.673c0-0.266,0.318-0.482,0.712-0.482
		h5.25c0.393,0,0.713,0.217,0.713,0.482V66.327z M142.677,111.647c0,0.26-0.327,0.479-0.711,0.479h-5.251
		c-0.393,0-0.72-0.219-0.72-0.479v-5.681c0-0.258,0.327-0.478,0.72-0.478h5.251c0.384,0,0.711,0.22,0.711,0.478V111.647z
		 M142.677,66.327c0,0.27-0.327,0.485-0.711,0.485h-5.251c-0.393,0-0.72-0.216-0.72-0.485v-5.673c0-0.266,0.327-0.482,0.72-0.482
		h5.251c0.384,0,0.711,0.217,0.711,0.482V66.327z"/>
</g>
</svg>
